<?xml version="1.0" encoding="UTF-8" standalone="no"?>
<svg
   xmlns:dc="http://purl.org/dc/elements/1.1/"
   xmlns:cc="http://creativecommons.org/ns#"
   xmlns:rdf="http://www.w3.org/1999/02/22-rdf-syntax-ns#"
   xmlns:svg="http://www.w3.org/2000/svg"
   xmlns="http://www.w3.org/2000/svg"
   xmlns:sodipodi="http://sodipodi.sourceforge.net/DTD/sodipodi-0.dtd"
   xmlns:inkscape="http://www.inkscape.org/namespaces/inkscape"
   inkscape:version="1.0 (4035a4fb49, 2020-05-01)"
   height="372.56"
   width="500"
   sodipodi:docname="Oops! 404 Error with a broken robot-rafiki.svg"
   id="svg211"
   version="1.1"
   viewBox="0 0 500 372.56">
  <metadata
     id="metadata217">
    <rdf:RDF>
      <cc:Work
         rdf:about="">
        <dc:format>image/svg+xml</dc:format>
        <dc:type
           rdf:resource="http://purl.org/dc/dcmitype/StillImage" />
      </cc:Work>
    </rdf:RDF>
  </metadata>
  <defs
     id="defs215" />
  <sodipodi:namedview
     inkscape:current-layer="svg211"
     inkscape:window-maximized="1"
     inkscape:window-y="-9"
     inkscape:window-x="1911"
     inkscape:cy="195"
     inkscape:cx="250"
     inkscape:zoom="1.6033647"
     showgrid="false"
     id="namedview213"
     inkscape:window-height="1001"
     inkscape:window-width="1920"
     inkscape:pageshadow="2"
     inkscape:pageopacity="0"
     guidetolerance="10"
     gridtolerance="10"
     objecttolerance="10"
     borderopacity="1"
     bordercolor="#666666"
     pagecolor="#ffffff" />
  <g
     transform="translate(0,-55)"
     id="g1150">
    <g
       id="freepik--background-complete--inject-2">
      <rect
         x="0"
         y="382.39999"
         width="500"
         height="0.25"
         style="fill:#ebebeb"
         id="rect2" />
      <rect
         x="428.22"
         y="398.48999"
         width="21.68"
         height="0.25"
         style="fill:#ebebeb"
         id="rect4" />
      <rect
         x="310.56"
         y="393.31"
         width="34.110001"
         height="0.25"
         style="fill:#ebebeb"
         id="rect6" />
      <rect
         x="396.59"
         y="389.20999"
         width="44.529999"
         height="0.25"
         style="fill:#ebebeb"
         id="rect8" />
      <rect
         x="161.88"
         y="394.25"
         width="11.14"
         height="0.25"
         style="fill:#ebebeb"
         id="rect10" />
      <rect
         x="114.58"
         y="394.25"
         width="38.389999"
         height="0.25"
         style="fill:#ebebeb"
         id="rect12" />
      <rect
         x="66.309998"
         y="390.03"
         width="27.700001"
         height="0.25"
         style="fill:#ebebeb"
         id="rect14" />
      <path
         d="M 237,337.8 H 43.91 a 5.71,5.71 0 0 1 -5.7,-5.71 V 60.66 A 5.71,5.71 0 0 1 43.91,55 H 237 a 5.71,5.71 0 0 1 5.71,5.71 V 332.09 A 5.71,5.71 0 0 1 237,337.8 Z M 43.91,55.2 a 5.46,5.46 0 0 0 -5.45,5.46 v 271.43 a 5.46,5.46 0 0 0 5.45,5.46 H 237 a 5.47,5.47 0 0 0 5.46,-5.46 V 60.66 A 5.47,5.47 0 0 0 237,55.2 Z"
         style="fill:#ebebeb"
         id="path16" />
      <path
         d="m 453.31,337.8 h -193.1 a 5.72,5.72 0 0 1 -5.71,-5.71 V 60.66 A 5.72,5.72 0 0 1 260.21,55 h 193.1 a 5.71,5.71 0 0 1 5.69,5.66 v 271.43 a 5.71,5.71 0 0 1 -5.69,5.71 z M 260.21,55.2 a 5.47,5.47 0 0 0 -5.46,5.46 v 271.43 a 5.47,5.47 0 0 0 5.46,5.46 h 193.1 a 5.47,5.47 0 0 0 5.46,-5.46 V 60.66 a 5.47,5.47 0 0 0 -5.46,-5.46 z"
         style="fill:#ebebeb"
         id="path18" />
      <path
         d="m 216.07,200.88 0.45,-13.14 -8.06,-2.64 a 79.2,79.2 0 0 0 -2.16,-13.2 l 6.84,-5 -4.64,-12.34 -8.46,0.68 a 78.17,78.17 0 0 0 -7,-11.35 l 4.38,-7.31 -9,-9.61 -7.56,3.87 A 81.78,81.78 0 0 0 170,123 l 1.22,-8.4 -12,-5.44 -5.5,6.44 a 80.66,80.66 0 0 0 -13,-3 l -2,-8.23 -13.18,-0.45 -2.6,8.07 a 80.48,80.48 0 0 0 -13.19,2.15 l -5.08,-6.8 -12.34,4.61 0.68,8.46 a 80.13,80.13 0 0 0 -11.35,7.07 L 74.3,123 l -9.65,9 3.87,7.6 a 77.61,77.61 0 0 0 -7.8,10.84 l -8.39,-1.26 -5.48,12 6.48,5.49 a 78.54,78.54 0 0 0 -3,13 l -8.33,2.09 -0.45,13.14 8.1,2.64 a 77.4,77.4 0 0 0 2.15,13.19 l -6.84,5 4.65,12.35 8.46,-0.68 a 77,77 0 0 0 7,11.35 l -4.39,7.31 9,9.61 7.56,-3.87 a 80.74,80.74 0 0 0 10.84,7.83 l -1.26,8.39 12,5.45 5.53,-6.44 a 81.73,81.73 0 0 0 13,3.05 l 2,8.23 13.18,0.45 2.6,-8.07 a 81.5,81.5 0 0 0 13.2,-2.15 l 5,6.8 12.34,-4.61 -0.64,-8.46 a 83.44,83.44 0 0 0 11.35,-7.07 l 7.27,4.38 9.65,-9 -3.87,-7.6 a 77.38,77.38 0 0 0 7.8,-10.84 l 8.39,1.26 5.48,-12 -6.48,-5.5 a 77.26,77.26 0 0 0 3.05,-13 z m -88.79,42.57 a 52.16,52.16 0 1 1 53.89,-50.33 52.15,52.15 0 0 1 -53.89,50.33 z"
         style="fill:#ebebeb"
         id="path20" />
      <path
         d="m 441,157.42 3.31,-3.09 -1.31,-2.61 a 27.6,27.6 0 0 0 2.69,-3.74 l 2.9,0.43 1.87,-4.14 -2.22,-1.89 a 26.84,26.84 0 0 0 1.05,-4.49 l 2.85,-0.71 0.14,-4.54 -2.78,-0.9 a 28.32,28.32 0 0 0 -0.74,-4.56 l 2.35,-1.75 -1.6,-4.25 -2.91,0.23 a 28.25,28.25 0 0 0 -2.43,-3.92 l 1.51,-2.5 -3.11,-3.32 -2.6,1.33 a 28.24,28.24 0 0 0 -3.74,-2.69 l 0.42,-2.9 -4.13,-1.89 -1.9,2.23 a 27.83,27.83 0 0 0 -4.49,-1 l -0.71,-2.84 -4.54,-0.17 -0.91,2.8 a 27,27 0 0 0 -4.54,0.74 l -1.74,-2.35 -4.26,1.59 0.24,2.92 a 26.58,26.58 0 0 0 -3.92,2.43 l -2.52,-1.51 -3.32,3.09 1.29,2.55 a 26.6,26.6 0 0 0 -2.7,3.74 l -2.89,-0.43 -1.88,4.14 2.23,1.9 a 26.5,26.5 0 0 0 -1,4.48 l -2.86,0.71 -0.14,4.54 2.79,0.9 a 27.24,27.24 0 0 0 0.73,4.56 l -2.36,1.74 1.6,4.25 2.92,-0.22 a 28.25,28.25 0 0 0 2.43,3.92 l -1.51,2.5 3.11,3.32 2.6,-1.33 a 27.35,27.35 0 0 0 3.74,2.69 l -0.43,2.89 4.14,1.89 1.9,-2.22 a 28.94,28.94 0 0 0 4.49,1 l 0.71,2.84 4.54,0.17 0.91,-2.8 a 26.86,26.86 0 0 0 4.54,-0.74 l 1.74,2.35 4.26,-1.59 -0.23,-2.92 a 26.69,26.69 0 0 0 3.91,-2.43 z m -23.62,-19.13 a 6.47,6.47 0 1 1 9.14,0.32 6.46,6.46 0 0 1 -9.18,-0.32 z"
         style="fill:#ebebeb"
         id="path22" />
      <path
         d="m 320,292.34 -10.34,-7.15 v 0 a 56.25,56.25 0 0 0 -4.16,-10.77 l 2.65,-10.4 -15,-16.06 -10.56,1.93 A 56.3,56.3 0 0 0 272.12,245 v 0 l -6.42,-10.81 -22,-0.75 -7.14,10.34 v 0 a 56.53,56.53 0 0 0 -10.76,4.15 l -10.4,-2.65 -16.06,15 1.93,10.54 v 0 a 56.23,56.23 0 0 0 -4.88,10.49 l -10.81,6.42 -0.75,22 10.35,7.14 a 54.75,54.75 0 0 0 4.15,10.82 v 0 l -2.68,10.31 15,16.06 10.49,-1.92 a 57.19,57.19 0 0 0 10.54,4.9 v 0 l 6.41,10.79 22,0.76 7.13,-10.34 a 57.08,57.08 0 0 0 10.86,-4.16 v 0 l 10.34,2.64 16.07,-15 -1.93,-10.54 a 55.4,55.4 0 0 0 4.88,-10.5 v 0 l 10.81,-6.42 z m -68.45,33.39 a 24.71,24.71 0 1 1 25.54,-23.86 24.74,24.74 0 0 1 -25.55,23.86 z"
         style="fill:#ebebeb"
         id="path24" />
      <path
         d="m 343.55,230 h -0.07 l -17.32,-0.59 a 2.08,2.08 0 0 1 -1.74,-1 l -4.67,-7.85 a 47.84,47.84 0 0 1 -7.28,-3.38 l -7.47,1.29 a 2.1,2.1 0 0 1 -1.92,-0.64 l -11.83,-12.66 a 2.1,2.1 0 0 1 -0.5,-2 l 1.89,-7.41 a 45.45,45.45 0 0 1 -2.86,-7.47 l -7.53,-5.2 a 2.1,2.1 0 0 1 -0.91,-1.81 l 0.59,-17.32 a 2.14,2.14 0 0 1 1,-1.74 l 7.87,-4.67 a 45.32,45.32 0 0 1 3.37,-7.25 l -1.38,-7.53 a 2.11,2.11 0 0 1 0.64,-1.93 l 12.66,-11.82 a 2.11,2.11 0 0 1 2,-0.51 l 7.44,1.9 a 45.83,45.83 0 0 1 7.45,-2.87 l 5.2,-7.53 a 2,2 0 0 1 1.81,-0.91 l 17.31,0.6 a 2.11,2.11 0 0 1 1.75,1 l 4.67,7.86 a 46.41,46.41 0 0 1 7.22,3.38 l 7.56,-1.39 a 2.09,2.09 0 0 1 1.92,0.64 l 11.83,12.66 a 2.12,2.12 0 0 1 0.5,2 l -1.9,7.43 a 46.59,46.59 0 0 1 2.88,7.45 l 7.52,5.2 a 2.1,2.1 0 0 1 0.91,1.81 l -0.59,17.31 a 2.16,2.16 0 0 1 -1,1.75 l -7.87,4.67 a 46.51,46.51 0 0 1 -3.37,7.24 l 1.38,7.54 a 2.09,2.09 0 0 1 -0.64,1.92 L 367.33,220 a 2.1,2.1 0 0 1 -2,0.5 l -7.4,-1.89 a 47.49,47.49 0 0 1 -7.49,2.87 l -5.15,7.52 a 2.13,2.13 0 0 1 -1.74,1 z m -16.09,-4.77 15,0.51 5,-7.19 a 2,2 0 0 1 1.19,-0.84 43.84,43.84 0 0 0 8.15,-3.13 v 0 a 2.16,2.16 0 0 1 1.46,-0.15 l 7,1.79 11,-10.25 -1.26,-7.23 a 2.09,2.09 0 0 1 0.26,-1.47 41.58,41.58 0 0 0 3.65,-7.83 2.13,2.13 0 0 1 0.94,-1.18 l 7.53,-4.46 0.51,-15 -7.2,-5 a 2.11,2.11 0 0 1 -0.81,-1.07 c 0,-0.05 0,-0.11 0,-0.17 a 43,43 0 0 0 -3.12,-8 2.11,2.11 0 0 1 -0.16,-1.48 l 1.8,-7.08 -10.25,-11 -7.19,1.32 a 2.13,2.13 0 0 1 -1.46,-0.26 42.3,42.3 0 0 0 -7.84,-3.67 2.28,2.28 0 0 1 -0.45,-0.2 2.1,2.1 0 0 1 -0.7,-0.72 l -4.51,-7.55 -15,-0.52 -5,7.21 a 2.16,2.16 0 0 1 -1.24,0.85 42.63,42.63 0 0 0 -8.06,3.11 2.08,2.08 0 0 1 -1.47,0.16 l -7.08,-1.8 -11,10.25 1.32,7.17 a 2.18,2.18 0 0 1 -0.19,1.33 l -0.1,0.17 a 41.56,41.56 0 0 0 -3.65,7.86 2.12,2.12 0 0 1 -0.92,1.12 l -7.53,4.47 -0.51,15 7.21,5 a 2.1,2.1 0 0 1 0.84,1.18 41.52,41.52 0 0 0 3.11,8.12 2.54,2.54 0 0 1 0.17,0.46 2.24,2.24 0 0 1 0,1 l -1.8,7 10.25,11 7.14,-1.31 a 2.1,2.1 0 0 1 1.45,0.26 43.26,43.26 0 0 0 7.89,3.67 2,2 0 0 1 1.17,0.93 z m 24.78,-94.81 z m -15.51,75.84 c -0.37,0 -0.74,0 -1.11,0 a 31.53,31.53 0 1 1 1.11,0 z m 0,-59.09 a 27.55,27.55 0 1 0 0.95,0 z"
         style="fill:#ebebeb"
         id="path26" />
      <polygon
         points="374.34,96.22 377.15,93.42 380.11,99.55 386.25,102.52 383.44,105.32 376.26,103.4 "
         style="fill:#e0e0e0"
         id="polygon28" />
      <path
         d="m 383.88,100.52 a 3.3446151,3.3446151 0 1 0 -4.73,-4.73 l 3.57,-5.36 4.78,2.42 1.05,5 z"
         style="fill:#e0e0e0"
         id="path30" />
      <path
         d="m 376.58,94 5.26,-5.26 7.16,1.91 1.93,7.17 -5.26,5.26 -7.17,-1.93 z m 9.55,4.3 a 3.35,3.35 0 1 0 -4.74,0 3.37,3.37 0 0 0 4.74,-0.02 z"
         style="fill:#f0f0f0"
         id="path32" />
      <polygon
         points="95.1,291.82 93.6,290.32 92.01,293.61 88.71,295.2 90.22,296.71 94.07,295.67 "
         style="fill:#e0e0e0"
         id="polygon34" />
      <path
         d="m 90,294.13 a 1.8,1.8 0 0 1 2.54,-2.54 L 90.63,288.72 88,290 l -0.56,2.7 z"
         style="fill:#e0e0e0"
         id="path36" />
      <path
         d="m 93.9,290.62 -2.82,-2.82 -3.85,1 -1,3.85 2.77,2.85 3.85,-1 z m -5.12,2.31 a 1.8,1.8 0 1 1 2.54,-2.54 1.8,1.8 0 0 1 -2.54,2.54 z"
         style="fill:#f0f0f0"
         id="path38" />
      <path
         d="m 76.36,85.66 3.2,3.2 a 2.14,2.14 0 0 0 3,0 v 0 a 2.15,2.15 0 0 0 0,-3 l -3.19,-3.19 a 2.15,2.15 0 0 0 -3,0 v 0 a 2.14,2.14 0 0 0 -0.01,2.99 z"
         style="fill:#f0f0f0"
         id="path40" />
      <path
         d="m 74.11,77.71 a 4.45,4.45 0 1 1 -3,5.78 4.59,4.59 0 0 1 3,-5.78 z"
         style="fill:#e0e0e0"
         id="path42" />
      <rect
         x="74.93"
         y="76.839996"
         width="1.37"
         height="10.1"
         transform="rotate(-109.76,75.615238,81.891316)"
         style="fill:#f0f0f0"
         id="rect44" />
    </g>
    <g
       id="freepik--Shadow--inject-2">
      <ellipse
         id="freepik--path--inject-2"
         cx="250"
         cy="416.23999"
         rx="193.89"
         ry="11.32"
         style="fill:#f5f5f5" />
    </g>
    <g
       id="freepik--oops--inject-2">
      <path
         d="m 86.72,120.65 c -1,-4.41 -0.56,-8.11 1.34,-11.13 1.9,-3.02 5,-5 9.41,-6 4.41,-1 8.22,-0.6 11.2,1.26 2.98,1.86 5,5 6,9.3 a 17.15,17.15 0 0 1 0.17,8.12 11.64,11.64 0 0 1 -3.53,5.76 15.53,15.53 0 0 1 -7.12,3.38 17.65,17.65 0 0 1 -7.88,0.27 11.72,11.72 0 0 1 -5.9,-3.5 15.67,15.67 0 0 1 -3.69,-7.46 z m 8.34,-1.86 q 0.93,4.08 2.85,5.52 a 5.89,5.89 0 0 0 8.3,-1.84 c 0.72,-1.39 0.73,-3.6 0.05,-6.61 q -0.87,-3.81 -2.81,-5.22 a 5.36,5.36 0 0 0 -4.56,-0.81 5.2,5.2 0 0 0 -3.65,2.7 C 94.5,114 94.43,116 95.06,118.79 Z"
         style="fill:#263238"
         id="path49" />
      <path
         d="m 118.59,117.35 a 10,10 0 0 1 1.35,-8.06 11.56,11.56 0 0 1 7.49,-4.75 q 5.87,-1.33 9.64,1.39 a 10.9,10.9 0 0 1 2.64,14.27 q -2.34,3.57 -7.62,4.76 a 11.83,11.83 0 0 1 -8.16,-0.66 9.85,9.85 0 0 1 -5.34,-6.95 z m 7.51,-1.73 a 6.08,6.08 0 0 0 1.93,3.63 3.58,3.58 0 0 0 5.33,-1.19 6.33,6.33 0 0 0 0.14,-4.2 6,6 0 0 0 -1.91,-3.54 3.33,3.33 0 0 0 -2.88,-0.65 3.49,3.49 0 0 0 -2.42,1.87 6,6 0 0 0 -0.19,4.08 z"
         style="fill:#263238"
         id="path51" />
      <path
         d="m 148.58,128.57 -6.13,-27 7,-1.6 0.66,2.89 a 9.5,9.5 0 0 1 2.11,-3.07 7.85,7.85 0 0 1 3.43,-1.69 7.21,7.21 0 0 1 6.74,1.62 12.81,12.81 0 0 1 3.83,6.93 c 0.74,3.25 0.52,5.91 -0.64,8 a 7.87,7.87 0 0 1 -5.33,3.91 8.57,8.57 0 0 1 -3.29,0.13 7.76,7.76 0 0 1 -2.94,-1.17 l 2.12,9.33 z m 3.61,-18.86 a 5.29,5.29 0 0 0 1.76,3.22 3.19,3.19 0 0 0 2.72,0.56 2.82,2.82 0 0 0 2,-1.57 6,6 0 0 0 0,-3.86 5.61,5.61 0 0 0 -1.71,-3.28 2.91,2.91 0 0 0 -2.5,-0.6 3.12,3.12 0 0 0 -2.14,1.67 5.72,5.72 0 0 0 -0.13,3.86 z"
         style="fill:#263238"
         id="path53" />
      <path
         d="m 169.43,110.3 7.28,-2.39 a 3.75,3.75 0 0 0 1.72,1.6 4.69,4.69 0 0 0 4.53,-1.1 1.49,1.49 0 0 0 0.37,-1.34 1.39,1.39 0 0 0 -1.13,-1.07 15.58,15.58 0 0 0 -3.4,0 33.63,33.63 0 0 1 -5.7,0 5.88,5.88 0 0 1 -3,-1.37 5.51,5.51 0 0 1 -1.39,-6.49 6.75,6.75 0 0 1 2.61,-2.79 16.78,16.78 0 0 1 5.13,-1.89 18.48,18.48 0 0 1 5.28,-0.64 6.91,6.91 0 0 1 3.16,1 8.86,8.86 0 0 1 2.54,2.62 l -7,2.31 a 2.51,2.51 0 0 0 -1.23,-1.17 3.85,3.85 0 0 0 -2.27,-0.1 3.08,3.08 0 0 0 -1.75,0.87 1.35,1.35 0 0 0 -0.33,1.22 1.2,1.2 0 0 0 1,0.92 12.36,12.36 0 0 0 3.36,-0.07 22.42,22.42 0 0 1 5.82,-0.08 6.29,6.29 0 0 1 3.28,1.51 5.46,5.46 0 0 1 1.66,2.85 6.18,6.18 0 0 1 -0.27,3.53 7.08,7.08 0 0 1 -2.64,3.27 15.76,15.76 0 0 1 -5.78,2.31 q -5.35,1.22 -8,0.21 a 7.07,7.07 0 0 1 -3.85,-3.72 z"
         style="fill:#263238"
         id="path55" />
      <path
         d="m 193.85,85.57 h 8.21 v 6.3 l -1.51,12.67 h -5.08 l -1.62,-12.65 z m 0.4,20.88 h 7.66 v 6.78 h -7.66 z"
         style="fill:#263238"
         id="path57" />
    </g>
    <g
       id="freepik--error-404--inject-2">
      <path
         d="m 128.68,171.58 h -0.18 c -4.5,-1.75 -7.19,-3.45 -8.59,-5.5 a 5.14,5.14 0 0 1 -3.23,-0.44 6.5,6.5 0 0 1 -2.79,-2.62 2.54,2.54 0 0 1 -2.42,0.37 6.14,6.14 0 0 1 -3,-2.41 2.23,2.23 0 0 1 -1.56,0.43 c -3,-0.24 -7,-6.16 -7.29,-12.46 a 0.52,0.52 0 0 1 0.48,-0.53 0.5,0.5 0 0 1 0.52,0.48 c 0.28,6 4.11,11.33 6.38,11.51 a 1.26,1.26 0 0 0 0.93,-0.27 12.28,12.28 0 0 1 -1,-9.42 c 0.86,-3 1.62,-4.18 2.54,-4 1.72,0.43 1.49,7 0.58,11.29 a 6.14,6.14 0 0 1 -0.84,2.18 5.4,5.4 0 0 0 2.54,2.21 1.58,1.58 0 0 0 1.67,-0.35 c -0.78,-1.93 -1,-4.57 0.12,-7.93 1.4,-4.43 2,-4.55 2.31,-4.63 a 0.66,0.66 0 0 1 0.64,0.22 c 0.93,1.05 -0.18,7.93 -1.34,11.33 a 5,5 0 0 1 -0.56,1.16 5.56,5.56 0 0 0 2.49,2.5 4.41,4.41 0 0 0 2.28,0.43 c -0.09,-0.19 -0.17,-0.38 -0.25,-0.58 -0.79,-2.15 -0.4,-4.62 1.19,-7.58 1.05,-1.95 1.91,-2.87 2.71,-2.87 v 0 a 1.11,1.11 0 0 1 1,0.66 c 0.87,1.61 0.24,6.92 -1.48,9.56 a 4,4 0 0 1 -1.62,1.4 c 1.34,1.76 3.89,3.31 8,4.89 a 0.49,0.49 0 0 1 0.29,0.64 0.51,0.51 0 0 1 -0.52,0.33 z M 123,155.11 c 0,0 -0.57,0 -1.83,2.35 -1.45,2.68 -1.82,4.89 -1.13,6.75 a 5.06,5.06 0 0 0 0.3,0.67 2.88,2.88 0 0 0 1.32,-1.1 c 1.4,-2.14 2.07,-6.54 1.55,-8.26 -0.07,-0.35 -0.21,-0.41 -0.21,-0.41 z m -7.18,-4.21 a 23.33,23.33 0 0 0 -1.34,3.53 11.38,11.38 0 0 0 -0.38,6.55 l 0.09,-0.26 a 32.79,32.79 0 0 0 1.66,-9.82 z m -6.58,-3.15 c -0.17,0.15 -0.66,0.78 -1.35,3.22 a 11.24,11.24 0 0 0 0.72,8.24 6.18,6.18 0 0 0 0.45,-1.4 c 1.07,-4.91 0.77,-9.35 0.21,-10.06 z"
         style="fill:#263238"
         id="path60" />
      <path
         d="m 166.7,224 a 9,9 0 0 1 -4.56,-1.19 0.51,0.51 0 0 1 -0.18,-0.69 0.49,0.49 0 0 1 0.68,-0.17 c 3.57,2.09 8.18,0.63 9.13,-0.9 a 0.88,0.88 0 0 0 0.15,-0.67 8.12,8.12 0 0 1 -5.13,-1.46 c -2.55,-1.59 -2.75,-2.07 -2.73,-2.45 a 0.61,0.61 0 0 1 0.34,-0.52 c 1,-0.5 5.51,1.57 7.39,2.81 a 3.63,3.63 0 0 1 0.62,0.52 3.55,3.55 0 0 0 1.9,-1.14 2.87,2.87 0 0 0 0.59,-1.13 h -0.2 c -1.6,0.16 -3.2,-0.53 -4.91,-2.11 -1.18,-1.08 -1.63,-1.83 -1.48,-2.42 a 0.9,0.9 0 0 1 0.72,-0.65 c 1.38,-0.35 4.8,1.11 6.19,2.64 a 2.68,2.68 0 0 1 0.64,1.18 c 1.31,-0.61 2.69,-2 4.32,-4.27 a 0.5,0.5 0 0 1 0.7,-0.12 0.51,0.51 0 0 1 0.12,0.7 c -1.89,2.64 -3.47,4.14 -5.05,4.75 a 3.69,3.69 0 0 1 -0.87,2 4.6,4.6 0 0 1 -2.18,1.41 1.84,1.84 0 0 1 -0.28,1.39 c -0.84,1.43 -3.26,2.49 -5.92,2.49 z m -0.89,-6.94 c 0.34,0.25 0.82,0.58 1.51,1 a 8,8 0 0 0 3.6,1.32 24.67,24.67 0 0 0 -5.11,-2.32 z m 3.49,-4.25 a 4.33,4.33 0 0 0 1.17,1.39 c 1.48,1.37 2.83,2 4.13,1.84 h 0.32 a 1.81,1.81 0 0 0 -0.44,-0.83 c -1.4,-1.58 -4.48,-2.56 -5.18,-2.4 z"
         style="fill:#263238"
         id="path62" />
      <path
         d="m 179.94,222.63 -15.58,2.83 -14.15,-77.22 -30.06,5.46 -49,87 5.26,28.71 62.85,-11.41 4.3,23.48 30.06,-5.48 -4.3,-23.48 15.58,-2.83 z m -78.85,14.37 26,-45.57 7.25,39.54 z"
         style="fill:#6460c7"
         id="path64" />
      <path
         d="m 305.43,143 a 58.84,58.84 0 0 0 -3.2,-14.22 46.31,46.31 0 0 0 -7,-12.19 40.37,40.37 0 0 0 -12.7,-10.36 q -8,-4.39 -21.22,-6.11 -27.45,-3.58 -42.78,9.74 -15.33,13.32 -20.2,51 a 139.33,139.33 0 0 0 -1,28.34 q 1,13 4.78,20.93 a 43.74,43.74 0 0 0 14.65,17.78 q 9.47,6.65 26,8.79 29.38,3.83 43.57,-11.29 14.19,-15.12 18.8,-51.1 a 129.48,129.48 0 0 0 0.3,-31.31 z"
         style="fill:#6460c7"
         id="path66" />
      <path
         d="m 251.77,226.43 c -2.41,-0.08 -5,-0.3 -7.61,-0.64 -9.16,-1.19 -16.24,-3.51 -21.06,-6.89 a 32.66,32.66 0 0 1 -11,-13.4 l -0.05,-0.11 c -1.92,-4 -3.18,-9.75 -3.73,-17 a 128.2,128.2 0 0 1 0.92,-26.1 c 3.57,-27.72 10.94,-39.29 16.49,-44.11 6.48,-5.62 15.23,-8.16 26.73,-7.76 2.36,0.08 4.86,0.29 7.43,0.62 7.38,1 13.23,2.6 17.37,4.86 a 29.79,29.79 0 0 1 9.31,7.49 35.25,35.25 0 0 1 5.35,9.27 47.78,47.78 0 0 1 2.56,11.55 118.67,118.67 0 0 1 -0.29,28.72 c -2.77,21.54 -8.13,36.68 -15.92,45 -5.78,6.16 -14.45,9 -26.51,8.54 z"
         style="fill:#263238"
         id="path68" />
      <path
         d="m 271.34,143.29 0.13,-3.79 -2.33,-0.76 a 22.82,22.82 0 0 0 -0.62,-3.8 l 2,-1.46 -1.34,-3.56 -2.44,0.2 a 22.82,22.82 0 0 0 -2,-3.27 l 1.26,-2.11 -2.6,-2.77 -2.18,1.12 a 23.17,23.17 0 0 0 -3.12,-2.26 l 0.35,-2.42 -3.46,-1.57 -1.58,1.86 a 23.26,23.26 0 0 0 -3.75,-0.88 l -0.59,-2.37 -3.8,-0.13 -0.75,2.32 a 23.54,23.54 0 0 0 -3.8,0.62 l -1.47,-2 -3.56,1.33 0.2,2.44 a 22.94,22.94 0 0 0 -3.27,2 l -2.1,-1.27 -2.78,2.59 1.12,2.19 a 21.78,21.78 0 0 0 -2.25,3.13 l -2.42,-0.37 -1.58,3.46 1.87,1.58 a 21.43,21.43 0 0 0 -0.88,3.76 l -2.38,0.6 -0.13,3.78 2.33,0.76 a 22.6,22.6 0 0 0 0.62,3.81 l -2,1.45 1.34,3.56 2.44,-0.2 a 21.51,21.51 0 0 0 2,3.27 l -1.27,2.11 2.6,2.77 2.18,-1.11 a 23.1,23.1 0 0 0 3.12,2.25 l -0.36,2.42 3.46,1.57 1.59,-1.85 a 23.12,23.12 0 0 0 3.76,0.87 l 0.59,2.38 3.79,0.13 0.75,-2.33 a 22.6,22.6 0 0 0 3.81,-0.62 l 1.45,2 3.56,-1.33 -0.19,-2.43 a 24.89,24.89 0 0 0 3.27,-2 l 2.1,1.26 2.78,-2.59 -1.11,-2.19 a 21.62,21.62 0 0 0 2.24,-3.12 l 2.42,0.36 1.58,-3.46 -1.86,-1.58 a 22.23,22.23 0 0 0 0.87,-3.75 z m -25.6,12.27 a 15,15 0 1 1 15.54,-14.51 15,15 0 0 1 -15.54,14.51 z"
         style="fill:#6460c7"
         id="path70" />
      <path
         d="m 287.12,212.87 0.28,-2.56 -1.54,-0.62 a 16,16 0 0 0 -0.22,-2.6 l 1.39,-0.89 -0.71,-2.47 h -1.66 a 14.82,14.82 0 0 0 -1.19,-2.31 l 0.94,-1.36 -1.6,-2 -1.53,0.64 a 16.07,16.07 0 0 0 -2,-1.68 l 0.37,-1.62 -2.25,-1.24 -1.18,1.19 a 15.87,15.87 0 0 0 -2.48,-0.79 l -0.28,-1.63 -2.55,-0.29 -0.63,1.54 a 14.85,14.85 0 0 0 -2.59,0.24 l -0.89,-1.42 -2.47,0.73 v 1.66 a 14.9,14.9 0 0 0 -2.31,1.2 l -1.36,-1 -2,1.6 0.64,1.53 a 16.13,16.13 0 0 0 -1.67,2 l -1.62,-0.36 -1.23,2.25 1.18,1.17 a 15,15 0 0 0 -0.79,2.49 l -1.64,0.27 -0.27,2.55 1.53,0.64 a 14.73,14.73 0 0 0 0.23,2.58 l -1.41,0.89 0.72,2.47 H 256 a 15.22,15.22 0 0 0 1.2,2.3 l -1,1.36 1.6,2 1.55,-0.65 a 14.55,14.55 0 0 0 2,1.67 L 261,224 l 2.25,1.23 1.17,-1.17 a 16.12,16.12 0 0 0 2.48,0.77 l 0.29,1.64 2.55,0.28 0.62,-1.53 A 16.22,16.22 0 0 0 273,225 l 0.89,1.41 2.46,-0.72 v -1.66 a 16.45,16.45 0 0 0 2.32,-1.2 l 1.34,1 2,-1.61 -0.65,-1.53 a 16.28,16.28 0 0 0 1.69,-2 l 1.61,0.36 1.24,-2.25 -1.18,-1.16 a 16.47,16.47 0 0 0 0.77,-2.48 z m -12.87,-1 a 4.46,4.46 0 1 1 -1.77,-6.05 4.47,4.47 0 0 1 1.77,6.05 z"
         style="opacity:0.3;fill:#6460c7"
         id="path72" />
      <path
         d="m 301.29,169.65 -3,-2.06 v 0 a 16.59,16.59 0 0 0 -1.2,-3.1 l 0.76,-3 -4.32,-4.63 -3,0.56 a 17,17 0 0 0 -3,-1.41 v 0 l -1.85,-3.12 -6.33,-0.21 -2.06,3 v 0 a 15.92,15.92 0 0 0 -3.1,1.2 l -3,-0.77 -4.63,4.33 0.56,3 v 0 a 15.68,15.68 0 0 0 -1.41,3 l -3.11,1.85 -0.22,6.33 3,2.06 a 16.11,16.11 0 0 0 1.2,3.12 v 0 l -0.76,3 4.32,4.63 3,-0.55 a 17.16,17.16 0 0 0 3,1.41 v 0 l 1.84,3.11 6.34,0.22 2.05,-3 a 16.61,16.61 0 0 0 3.13,-1.2 v 0 l 3,0.76 4.63,-4.32 -0.55,-3 a 16.7,16.7 0 0 0 1.41,-3 v 0 l 3.11,-1.85 z m -19.73,9.62 a 7.12,7.12 0 1 1 7.36,-6.87 7.13,7.13 0 0 1 -7.36,6.87 z"
         style="fill:#ffffff"
         id="path74" />
      <path
         d="m 323,119.12 0.52,-1.25 v 0 a 6.7,6.7 0 0 0 1,-0.69 h 1.16 l 1.36,-2 -0.44,-1.07 A 6.18,6.18 0 0 0 327,113 v 0 l 1,-0.92 -0.42,-2.35 -1.26,-0.52 v 0 a 6.35,6.35 0 0 0 -0.69,-1 v -1.16 l -1.95,-1.36 -1.08,0.45 v 0 a 5.55,5.55 0 0 0 -1.22,-0.28 l -0.92,-1 -2.34,0.42 -0.53,1.26 a 6.5,6.5 0 0 0 -1.05,0.68 v 0 h -1.15 l -1.36,2 0.44,1.07 a 6.18,6.18 0 0 0 -0.28,1.22 v 0 l -1,0.93 0.42,2.34 1.26,0.52 a 5.73,5.73 0 0 0 0.68,1 v 0 1.15 l 2,1.36 1.07,-0.44 a 6.43,6.43 0 0 0 1.23,0.27 v 0 l 0.92,1 z m -5,-6.48 a 2.68,2.68 0 1 1 3.11,2.16 2.69,2.69 0 0 1 -3.11,-2.16 z"
         style="fill:#6460c7"
         id="path76" />
      <path
         d="m 295.61,112.49 -0.77,-0.65 a 19.9,19.9 0 0 1 6,-5 l 0.47,0.88 a 18.87,18.87 0 0 0 -5.7,4.77 z"
         style="fill:#6460c7"
         id="path78" />
      <path
         d="m 303.59,106.8 -0.39,-0.92 A 23.92,23.92 0 0 1 314.94,104 l -0.1,1 a 22.79,22.79 0 0 0 -11.25,1.8 z"
         style="fill:#6460c7"
         id="path80" />
      <path
         d="m 301.7,113.72 -0.82,-0.56 a 16.74,16.74 0 0 1 9.87,-6.39 l 0.19,1 a 15.72,15.72 0 0 0 -9.24,5.95 z"
         style="fill:#6460c7"
         id="path82" />
      <path
         d="m 235.34,210 a 0.52,0.52 0 0 1 -0.36,-0.16 l -2.09,-2.16 a 17.49,17.49 0 0 1 -3.15,-0.58 l -3.27,1.44 a 0.49,0.49 0 0 1 -0.47,0 l -5.48,-3.63 a 0.49,0.49 0 0 1 -0.22,-0.43 v -3.56 a 17.2,17.2 0 0 1 -1.76,-2.68 l -2.81,-1.08 a 0.5,0.5 0 0 1 -0.31,-0.37 l -1.3,-6.44 a 0.5,0.5 0 0 1 0.14,-0.46 l 2.16,-2.09 a 18.78,18.78 0 0 1 0.58,-3.15 l -1.44,-3.27 a 0.49,0.49 0 0 1 0,-0.47 l 3.63,-5.48 a 0.47,0.47 0 0 1 0.43,-0.22 l 3.56,0.05 a 16.52,16.52 0 0 1 2.68,-1.76 l 1.09,-2.81 a 0.49,0.49 0 0 1 0.36,-0.31 l 6.44,-1.3 a 0.49,0.49 0 0 1 0.46,0.14 l 2.09,2.16 a 17.76,17.76 0 0 1 3.16,0.58 l 3.26,-1.44 a 0.51,0.51 0 0 1 0.48,0 l 5.47,3.63 a 0.54,0.54 0 0 1 0.23,0.43 l -0.06,3.56 a 17.26,17.26 0 0 1 1.77,2.68 l 2.8,1.09 a 0.49,0.49 0 0 1 0.31,0.36 l 1.31,6.44 a 0.52,0.52 0 0 1 -0.14,0.46 l -2.17,2.1 a 18,18 0 0 1 -0.58,3.14 l 1.44,3.27 a 0.51,0.51 0 0 1 0,0.48 l -3.58,5.43 a 0.51,0.51 0 0 1 -0.42,0.22 l -3.57,-0.05 a 18.38,18.38 0 0 1 -2.67,1.76 l -1.09,2.81 a 0.49,0.49 0 0 1 -0.37,0.31 l -6.44,1.36 z m -5.63,-4 a 0.36,0.36 0 0 1 0.14,0 16.66,16.66 0 0 0 3.31,0.61 0.56,0.56 0 0 1 0.32,0.15 l 2,2.1 5.9,-1.19 1.06,-2.74 a 0.55,0.55 0 0 1 0.24,-0.26 16.05,16.05 0 0 0 2.81,-1.85 0.47,0.47 0 0 1 0.33,-0.11 l 3.47,0.05 3.32,-5 -1.4,-3.18 a 0.5,0.5 0 0 1 0,-0.34 17.49,17.49 0 0 0 0.61,-3.31 0.51,0.51 0 0 1 0.15,-0.32 l 2.1,-2 -1.19,-5.9 -2.73,-1.06 a 0.49,0.49 0 0 1 -0.27,-0.24 16.43,16.43 0 0 0 -1.85,-2.81 0.52,0.52 0 0 1 -0.11,-0.32 v -3.48 l -5,-3.32 -3.17,1.4 a 0.52,0.52 0 0 1 -0.35,0 17,17 0 0 0 -3.32,-0.61 0.56,0.56 0 0 1 -0.32,-0.15 l -2,-2.1 -5.9,1.2 -1.05,2.78 a 0.51,0.51 0 0 1 -0.23,0.27 15.94,15.94 0 0 0 -2.82,1.85 0.43,0.43 0 0 1 -0.32,0.11 l -3.47,-0.05 -3.33,5 1.4,3.18 a 0.5,0.5 0 0 1 0,0.43 17.13,17.13 0 0 0 -0.58,3.23 0.5,0.5 0 0 1 -0.15,0.32 l -2.1,2 1.2,5.9 2.72,1.06 a 0.55,0.55 0 0 1 0.28,0.26 16.22,16.22 0 0 0 1.84,2.79 0.48,0.48 0 0 1 0.11,0.32 v 3.48 l 5,3.32 3.18,-1.4 a 0.52,0.52 0 0 1 0.17,-0.07 z m 4.91,-3.24 a 13.32,13.32 0 0 1 -11.09,-20.68 v 0 a 13.33,13.33 0 1 1 11.09,20.68 z m -10.25,-20.13 a 12.32,12.32 0 1 0 17.08,-3.46 12.27,12.27 0 0 0 -17.08,3.46 z"
         style="fill:#ffffff"
         id="path84" />
      <path
         d="m 425.83,231.65 -15.7,-2.12 10.38,-77.81 -30.28,-4.08 -73.45,67.62 -3.86,28.93 63.29,8.54 -3.16,23.67 30.28,4.08 3.16,-23.66 15.7,2.12 z m -79.42,-10.72 38.76,-35.33 -5.32,39.84 z"
         style="fill:#6460c7"
         id="path86" />
      <path
         d="M 394.13,279.74 H 394 a 0.5,0.5 0 0 1 -0.4,-0.58 L 417,151.22 a 0.51,0.51 0 0 1 0.58,-0.4 0.5,0.5 0 0 1 0.4,0.58 l -23.35,127.93 a 0.51,0.51 0 0 1 -0.5,0.41 z"
         style="fill:#263238"
         id="path88" />
      <path
         d="m 414.83,153.37 a 0.8205486,0.8205486 0 0 1 -1.64,-0.06 0.8205486,0.8205486 0 0 1 1.64,0.06 z"
         style="fill:#263238"
         id="path90" />
      <path
         d="m 411.5,170.67 a 0.82,0.82 0 1 1 -0.79,-0.85 0.82,0.82 0 0 1 0.79,0.85 z"
         style="fill:#263238"
         id="path92" />
      <path
         d="m 408.17,188 a 0.82,0.82 0 0 1 -0.85,0.79 0.81,0.81 0 0 1 -0.79,-0.84 0.82,0.82 0 0 1 0.85,-0.8 0.83,0.83 0 0 1 0.79,0.85 z"
         style="fill:#263238"
         id="path94" />
      <path
         d="m 401.61,206 a 0.82,0.82 0 0 1 -1.63,0 0.82,0.82 0 1 1 1.63,0 z"
         style="fill:#263238"
         id="path96" />
      <path
         d="m 401.5,222.57 a 0.81,0.81 0 0 1 -0.85,0.79 0.82,0.82 0 1 1 0.85,-0.79 z"
         style="fill:#263238"
         id="path98" />
      <path
         d="m 398.17,239.87 a 0.82,0.82 0 1 1 -0.79,-0.84 0.82,0.82 0 0 1 0.79,0.84 z"
         style="fill:#263238"
         id="path100" />
      <path
         d="m 394.84,257.17 a 0.83,0.83 0 0 1 -0.85,0.8 0.82,0.82 0 0 1 -0.79,-0.85 0.82038101,0.82038101 0 0 1 1.64,0.05 z"
         style="fill:#263238"
         id="path102" />
      <path
         d="m 391.5,274.48 a 0.82,0.82 0 1 1 -0.79,-0.85 0.81,0.81 0 0 1 0.79,0.85 z"
         style="fill:#263238"
         id="path104" />
      <path
         d="m 400.79,206.45 a 0.49,0.49 0 0 1 -0.48,-0.39 0.5,0.5 0 0 1 0.38,-0.6 l 2.48,-0.53 a 0.5,0.5 0 0 1 0.6,0.39 0.5,0.5 0 0 1 -0.39,0.59 l -2.48,0.53 z"
         style="fill:#263238"
         id="path106" />
      <path
         d="m 409.08,197.24 a 85.06,85.06 0 0 0 -3,9.36 c -0.75,3.53 -0.79,11.43 -0.79,11.43"
         style="fill:#263238"
         id="path108" />
      <path
         d="m 405.29,218.53 v 0 a 0.52,0.52 0 0 1 -0.5,-0.51 c 0,-0.32 0.06,-8 0.81,-11.52 a 84.22,84.22 0 0 1 3,-9.44 0.5,0.5 0 1 1 0.93,0.36 84.37,84.37 0 0 0 -3,9.29 c -0.73,3.44 -0.78,11.24 -0.79,11.32 a 0.5,0.5 0 0 1 -0.45,0.5 z"
         style="fill:#263238"
         id="path110" />
    </g>
    <g
       id="freepik--Character--inject-2">
      <path
         d="m 222.45,304.84 c 1.39,-22.4 -1.16,-63.13 40.95,-57.73 45.13,5.77 32.22,58.55 32.22,58.55 z"
         style="fill:#263238"
         id="path113" />
      <circle
         cx="251.50999"
         cy="273"
         r="18.379999"
         style="fill:#ffffff"
         id="circle115" />
      <path
         d="m 253.93,254.65 c -8.71,-1.48 -18,4.93 -18.93,11.43 l 34.51,3.18 c -1.22,-7.41 -8.68,-13.43 -15.58,-14.61 z"
         style="fill:#263238"
         id="path117" />
      <path
         d="m 265.58,272.54 c -0.25,4.81 -2.87,8.58 -5.85,8.42 -2.98,-0.16 -5.2,-4.17 -5,-9 0.2,-4.83 2.87,-8.58 5.85,-8.42 2.98,0.16 5.24,4.2 5,9 z"
         style="fill:#263238"
         id="path119" />
      <path
         d="M 251.51,292.38 A 19.38,19.38 0 1 1 270.89,273 19.4,19.4 0 0 1 251.51,292.38 Z m 0,-36.75 A 17.38,17.38 0 1 0 268.89,273 17.39,17.39 0 0 0 251.51,255.63 Z"
         style="fill:#6460c7"
         id="path121" />
      <path
         d="m 290.49,304.28 h -0.12 a 0.49,0.49 0 0 1 -0.37,-0.6 c 0,-0.13 3.22,-13.69 -0.09,-27.4 a 0.51419841,0.51419841 0 1 1 1,-0.24 c 3.37,14 0.12,27.74 0.09,27.87 a 0.5,0.5 0 0 1 -0.51,0.37 z"
         style="opacity:0.3;fill:#ffffff"
         id="path123" />
      <path
         d="m 287.7,268.76 a 0.52,0.52 0 0 1 -0.46,-0.29 34.93,34.93 0 0 0 -4.74,-7.66 0.5,0.5 0 0 1 0.07,-0.7 0.5,0.5 0 0 1 0.71,0.07 36.47,36.47 0 0 1 4.87,7.87 0.49,0.49 0 0 1 -0.24,0.66 0.54,0.54 0 0 1 -0.21,0.05 z"
         style="opacity:0.3;fill:#ffffff"
         id="path125" />
      <path
         d="m 128.73,409.92 h -0.37 a 5.0019596,5.0019596 0 1 1 0.28,-10 h 0.09 c 2.89,0 9.84,-3.51 24.38,-26.43 a 5,5 0 0 1 7.51,-1.09 207.46,207.46 0 0 0 37.14,25.48 5,5 0 1 1 -4.52,8.91 212.75,212.75 0 0 1 -34.8,-23.14 c -12.19,18.35 -21.23,26.27 -29.71,26.27 z"
         style="fill:#263238"
         id="path127" />
      <path
         d="m 159.67,371.5 h -0.43 a 3,3 0 0 1 -2.54,-3.39 c 0.71,-5 -0.17,-23.63 -6.48,-38.13 a 3,3 0 0 1 1.06,-3.68 c 13.7,-9.33 42.88,-10.45 44.12,-10.49 a 3.0016662,3.0016662 0 1 1 0.2,6 c -0.27,0 -25.78,1 -38.88,8.2 5.58,14.44 6.85,32.43 5.92,38.94 a 3,3 0 0 1 -2.97,2.55 z"
         style="fill:#263238"
         id="path129" />
      <path
         d="m 164.71,367.62 c -2,-4.71 -11,-4.18 -16.27,-0.14 -2.82,2.15 -6.64,8.64 -7,11 a 3.54,3.54 0 0 0 4,4.24 c 3.45,-0.3 8.18,-5.31 8.18,-5.31 -3.15,3.09 0.92,5.27 7,0.8 3.32,-2.49 6.32,-5.32 4.09,-10.59 z"
         style="fill:#6460c7"
         id="path131" />
      <path
         d="m 336.71,306.16 a 0.32,0.32 0 0 1 -0.14,0 0.49,0.49 0 0 1 -0.34,-0.62 c 1.33,-4.64 2.78,-7.47 4.69,-9 a 5.18,5.18 0 0 1 0.16,-3.26 6.45,6.45 0 0 1 2.36,-3 2.54,2.54 0 0 1 -0.59,-2.38 6.18,6.18 0 0 1 2.14,-3.16 2.24,2.24 0 0 1 -0.57,-1.51 c 0,-3 5.51,-7.52 11.76,-8.38 a 0.50487622,0.50487622 0 0 1 0.14,1 c -5.94,0.81 -10.92,5.11 -10.9,7.38 a 1.31,1.31 0 0 0 0.36,0.91 12.24,12.24 0 0 1 9.28,-1.87 c 3.07,0.59 4.32,1.24 4.18,2.17 -0.28,1.75 -6.81,2.12 -11.19,1.6 a 6.18,6.18 0 0 1 -2.25,-0.65 5.38,5.38 0 0 0 -2,2.73 1.57,1.57 0 0 0 0.49,1.64 c 1.86,-1 4.47,-1.36 7.92,-0.6 4.53,1 4.7,1.55 4.81,1.88 a 0.67,0.67 0 0 1 -0.17,0.67 c -0.95,1 -7.9,0.53 -11.39,-0.33 a 4.91,4.91 0 0 1 -1.21,-0.45 5.45,5.45 0 0 0 -2.26,2.71 4.23,4.23 0 0 0 -0.23,2.3 5.77,5.77 0 0 1 0.55,-0.29 c 2.07,-1 4.57,-0.82 7.66,0.5 2,0.87 3,1.65 3.1,2.44 a 1.12,1.12 0 0 1 -0.57,1 c -1.53,1 -6.87,0.86 -9.65,-0.62 a 4,4 0 0 1 -1.54,-1.49 c -1.63,1.5 -2.95,4.17 -4.15,8.36 a 0.51,0.51 0 0 1 -0.45,0.32 z m 5.42,-9.33 a 3,3 0 0 0 1.22,1.22 c 2.26,1.2 6.7,1.47 8.36,0.8 0.34,-0.14 0.39,-0.25 0.39,-0.25 0,0 -0.05,-0.56 -2.5,-1.61 -2.8,-1.2 -5,-1.37 -6.83,-0.52 a 5.79,5.79 0 0 0 -0.64,0.36 z m 3.34,-6.57 0.25,0.07 a 33.09,33.09 0 0 0 9.94,0.75 21.7,21.7 0 0 0 -3.64,-1 11.38,11.38 0 0 0 -6.55,0.18 z m 1.26,-5.62 a 5.92,5.92 0 0 0 1.43,0.32 c 5,0.59 9.39,-0.1 10,-0.73 -0.17,-0.15 -0.84,-0.58 -3.32,-1.05 a 11.25,11.25 0 0 0 -8.11,1.46 z"
         style="fill:#263238"
         id="path133" />
      <path
         d="m 206.53,408.25 c 0.66,-0.21 0.44,-0.85 -0.3,-0.85 h -13.54 c -25.78,-2.73 -43.79,0.93 -32.44,1.79 11.35,0.86 -0.8,0.68 -9.09,3.82 -8.29,3.14 61.65,3.93 68,0 5.84,-3.62 -21.77,-1.83 -12.63,-4.76 z"
         style="fill:#263238"
         id="path135" />
      <polygon
         points="180.78,294.11 319.89,297.22 303.47,412.24 185.67,408.33 "
         style="fill:#6460c7"
         id="polygon137" />
      <path
         d="m 222.45,410.05 a 0.5,0.5 0 0 1 -0.5,-0.46 l -9.44,-114.72 a 0.51,0.51 0 0 1 0.46,-0.54 0.52,0.52 0 0 1 0.54,0.46 L 223,409.51 a 0.5,0.5 0 0 1 -0.46,0.54 z"
         style="fill:#263238"
         id="path139" />
      <polygon
         points="345.1,301.21 319.89,297.22 303.47,412.24 335.13,407.42 "
         style="fill:#6460c7"
         id="polygon141" />
      <polygon
         points="345.1,301.21 319.89,297.22 303.47,412.24 335.13,407.42 "
         style="opacity:0.2"
         id="polygon143" />
      <path
         d="m 195.73,386.32 -2.9,-67.87 a 12.27,12.27 0 0 1 12.53,-12.79 l 88.06,2 a 12.27,12.27 0 0 1 11.87,14 L 295.53,390 A 12.27,12.27 0 0 1 283,400.55 l -75.39,-2.5 a 12.27,12.27 0 0 1 -11.88,-11.73 z"
         style="fill:#263238"
         id="path145" />
      <path
         d="m 205.25,326.49 13.62,0.43 -0.11,3.51 -8.53,-0.27 -0.08,2.62 7.91,0.25 -0.11,3.36 -7.91,-0.26 -0.1,3.25 8.77,0.28 -0.12,3.72 -13.87,-0.44 z"
         style="fill:#ffffff"
         id="path147" />
      <path
         d="m 221.4,343.47 0.52,-16.45 8.48,0.27 a 12.22,12.22 0 0 1 3.59,0.52 3.81,3.81 0 0 1 2,1.56 4.64,4.64 0 0 1 -1.64,6.59 6.16,6.16 0 0 1 -1.81,0.6 5.12,5.12 0 0 1 1.31,0.64 5.51,5.51 0 0 1 0.78,0.9 6.43,6.43 0 0 1 0.68,1 l 2.31,4.85 -5.74,-0.19 -2.56,-5.11 a 3.94,3.94 0 0 0 -0.88,-1.3 2.22,2.22 0 0 0 -1.23,-0.42 h -0.45 l -0.21,6.67 z m 5.42,-9.62 2.14,0.07 a 8.63,8.63 0 0 0 1.35,-0.19 1.35,1.35 0 0 0 0.85,-0.49 1.57,1.57 0 0 0 0.35,-0.94 1.54,1.54 0 0 0 -0.47,-1.24 3.1,3.1 0 0 0 -1.88,-0.49 l -2.24,-0.07 z"
         style="fill:#ffffff"
         id="path149" />
      <path
         d="m 239.28,344 0.52,-16.45 8.47,0.27 a 12.16,12.16 0 0 1 3.59,0.52 3.77,3.77 0 0 1 2,1.56 4.45,4.45 0 0 1 0.68,2.69 4.42,4.42 0 0 1 -2.31,3.9 6.27,6.27 0 0 1 -1.81,0.6 5,5 0 0 1 1.3,0.64 4.84,4.84 0 0 1 0.79,0.89 6.87,6.87 0 0 1 0.68,1 l 2.31,4.84 -5.74,-0.18 -2.56,-5.11 a 4,4 0 0 0 -0.88,-1.3 2.08,2.08 0 0 0 -1.24,-0.42 h -0.44 l -0.22,6.68 z m 5.41,-9.62 2.15,0.06 a 7.21,7.21 0 0 0 1.35,-0.18 1.31,1.31 0 0 0 0.84,-0.49 1.46,1.46 0 0 0 0.35,-0.94 1.52,1.52 0 0 0 -0.46,-1.24 3,3 0 0 0 -1.89,-0.49 l -2.23,-0.07 z"
         style="fill:#ffffff"
         id="path151" />
      <path
         d="m 256.32,336.36 a 7.79,7.79 0 0 1 8.76,-8.25 8.6,8.6 0 0 1 6.26,2.41 8.32,8.32 0 0 1 2,6.25 10.21,10.21 0 0 1 -1.12,4.7 7,7 0 0 1 -2.9,2.78 9.22,9.22 0 0 1 -4.61,0.88 10.58,10.58 0 0 1 -4.58,-1 7,7 0 0 1 -2.86,-2.9 9.21,9.21 0 0 1 -0.95,-4.87 z m 5.08,0.18 a 5.56,5.56 0 0 0 0.81,3.61 3.52,3.52 0 0 0 5.06,0.19 6.13,6.13 0 0 0 1,-3.8 5.17,5.17 0 0 0 -0.83,-3.43 3.22,3.22 0 0 0 -2.44,-1.11 3.1,3.1 0 0 0 -2.51,1 5.56,5.56 0 0 0 -1.09,3.54 z"
         style="fill:#ffffff"
         id="path153" />
      <path
         d="m 275.91,345.21 0.52,-16.46 8.47,0.27 a 12.51,12.51 0 0 1 3.59,0.52 3.87,3.87 0 0 1 2,1.56 4.49,4.49 0 0 1 0.68,2.69 4.42,4.42 0 0 1 -2.31,3.91 6.61,6.61 0 0 1 -1.81,0.59 5,5 0 0 1 1.3,0.65 4.84,4.84 0 0 1 0.79,0.89 6.43,6.43 0 0 1 0.68,1 l 2.31,4.85 -5.74,-0.18 -2.56,-5.12 a 3.91,3.91 0 0 0 -0.88,-1.29 2.16,2.16 0 0 0 -1.24,-0.43 h -0.44 l -0.22,6.68 z m 5.41,-9.63 2.15,0.07 a 7.21,7.21 0 0 0 1.35,-0.18 1.35,1.35 0 0 0 0.84,-0.49 1.48,1.48 0 0 0 0.35,-1 1.5,1.5 0 0 0 -0.46,-1.23 3,3 0 0 0 -1.89,-0.49 l -2.23,-0.07 z"
         style="fill:#ffffff"
         id="path155" />
      <path
         d="m 284,373.16 a 1.32,1.32 0 0 1 -1,-0.43 l -8.56,-9.37 -9.24,8.44 a 1.31,1.31 0 0 1 -1.85,-0.08 l -8.56,-9.37 -9.24,8.44 a 1.31,1.31 0 0 1 -1.85,-0.08 l -8.57,-9.37 -9.23,8.44 a 1.33,1.33 0 0 1 -1,0.34 1.35,1.35 0 0 1 -0.91,-0.43 l -8.56,-9.36 -9.23,8.43 a 1.32,1.32 0 0 1 -1.86,-0.08 1.3,1.3 0 0 1 0.09,-1.85 l 10.2,-9.33 a 1.32,1.32 0 0 1 1.86,0.08 l 8.56,9.37 9.23,-8.44 a 1.37,1.37 0 0 1 0.95,-0.34 1.33,1.33 0 0 1 0.91,0.43 l 8.56,9.37 9.24,-8.44 a 1.3,1.3 0 0 1 1.85,0.08 l 8.56,9.37 9.24,-8.44 a 1.31,1.31 0 0 1 1.85,0.08 L 285,371 a 1.32,1.32 0 0 1 -1,2.2 z"
         style="fill:#ffffff"
         id="path157" />
      <polygon
         points="113.91,384.51 116.94,381.18 125.75,414.67 119.49,411.68 "
         style="fill:#6460c7"
         id="polygon159" />
      <polygon
         points="126.94,387.43 116.94,381.18 125.75,414.67 134.06,409.81 "
         style="fill:#6460c7"
         id="polygon161" />
      <polygon
         points="126.94,387.43 116.94,381.18 125.75,414.67 134.06,409.81 "
         style="opacity:0.2"
         id="polygon163" />
      <path
         d="m 262,419.61 h -0.69 a 5.0018222,5.0018222 0 0 1 0.27,-10 c 7.7,0.25 24,-4.48 33.32,-13.52 a 5,5 0 0 1 2,-1.2 c 15.79,-4.74 21.66,4.83 21.9,5.24 l -8.6,5.09 a 1,1 0 0 0 0.11,0.18 c -0.09,-0.13 -2.33,-3 -9.45,-1.24 -11.69,10.66 -29.63,15.45 -38.86,15.45 z"
         style="fill:#263238"
         id="path165" />
      <polygon
         points="241.75,391.53 266.22,392.44 261.39,426.25 243.18,425.11 "
         style="fill:#6460c7"
         id="polygon167" />
      <polygon
         points="268.29,401.08 266.22,392.44 261.39,426.25 265.65,422.01 "
         style="fill:#6460c7"
         id="polygon169" />
      <polygon
         points="268.29,401.08 266.22,392.44 261.39,426.25 265.65,422.01 "
         style="opacity:0.2"
         id="polygon171" />
      <path
         d="m 366.91,413.54 a 3,3 0 0 1 -1.81,-0.61 C 354.7,405.03 340.65,391 335.26,377.47 a 2.64,2.64 0 0 1 -0.17,-0.61 c -2.63,-15.64 -5.14,-48.55 -5.25,-49.94 a 3.0084257,3.0084257 0 1 1 6,-0.45 c 0,0.33 2.57,33.56 5.13,49.07 5.38,13.16 20,26.67 27.78,32.61 a 3,3 0 0 1 -1.82,5.39 z"
         style="fill:#263238"
         id="path173" />
      <path
         d="m 380.78,415.05 c -2.32,0 -4.95,-1.05 -7.82,-3.12 a 3.0004166,3.0004166 0 0 1 3.52,-4.86 c 2.48,1.79 3.83,2 4.3,2 a 3,3 0 0 1 0,6 z"
         style="fill:#263238"
         id="path175" />
      <path
         d="m 373.8,411.84 c 3.21,-9.53 16.37,-7.65 20.91,-6.23 a 47.77,47.77 0 0 1 11.07,4.8 c 2.45,1.6 2.49,4.29 -0.78,5.82 -4,1.88 -14.16,0.21 -14.16,0.21 5.24,2.29 0,6 -9.21,2.36 -2.99,-1.18 -8.96,-3.46 -7.83,-6.96 z"
         style="fill:#6460c7"
         id="path177" />
      <path
         d="m 341.86,331 c -1.19,8.1 -7.9,14.07 -13.36,13.27 -5.46,-0.8 -5.68,-8 -4.49,-16.14 1.19,-8.14 3.35,-14 8.81,-13.2 5.46,0.8 10.23,8 9.04,16.07 z"
         style="fill:#263238"
         id="path179" />
      <circle
         cx="209.88"
         cy="297.88"
         r="0.81999999"
         style="fill:#263238"
         id="circle181" />
      <path
         d="m 218.21,303.78 a 0.82,0.82 0 1 1 -0.82,-0.82 0.82,0.82 0 0 1 0.82,0.82 z"
         style="fill:#263238"
         id="path183" />
      <path
         d="m 219.13,400.68 a 0.82,0.82 0 1 1 -0.82,-0.82 0.82,0.82 0 0 1 0.82,0.82 z"
         style="fill:#263238"
         id="path185" />
      <path
         d="m 226.64,406.59 a 0.82,0.82 0 1 1 -0.82,-0.82 0.82,0.82 0 0 1 0.82,0.82 z"
         style="fill:#263238"
         id="path187" />
    </g>
    <g
       id="freepik--robot-parts--inject-2">
      <path
         d="M 82.51,416.42 A 9.62,9.62 0 0 1 75.18,412.47 0.5,0.5 0 1 1 76,411.9 c 1.87,2.7 6,4.13 7.8,3.28 a 1.3,1.3 0 0 0 0.47,-0.34 6.05,6.05 0 0 1 -3.52,-4.48 c -0.23,-1.27 -0.41,-3 0.63,-3.22 1.44,-0.32 3.32,3.15 4,5.78 a 3.78,3.78 0 0 1 0.13,1.34 4.26,4.26 0 0 0 1.78,0.14 1.94,1.94 0 0 0 1.38,-0.74 5.86,5.86 0 0 1 -2.31,-4.19 c -0.38,-2.74 -0.09,-3.21 0.21,-3.45 a 0.66,0.66 0 0 1 0.69,-0.07 c 1.07,0.45 2.36,4.33 2.61,6.53 a 2.66,2.66 0 0 1 0,0.69 3.91,3.91 0 0 0 1.35,0.26 4.29,4.29 0 0 0 2.41,-0.63 c -0.14,-0.09 -0.27,-0.19 -0.4,-0.29 -1,-0.89 -1.46,-2.31 -1.28,-4.33 0.14,-1.57 0.49,-2.43 1.12,-2.7 a 1.13,1.13 0 0 1 1.21,0.24 6.92,6.92 0 0 1 1.73,5.56 3,3 0 0 1 -0.51,1.15 c 1.84,0.32 4.42,-0.2 6.65,-0.75 a 0.51419841,0.51419841 0 0 1 0.24,1 c -2.71,0.67 -5.63,1.22 -7.69,0.62 a 5.69,5.69 0 0 1 -3.5,1.16 4.83,4.83 0 0 1 -1.64,-0.31 2.8,2.8 0 0 1 -2.12,1.27 5.33,5.33 0 0 1 -2.24,-0.19 2.21,2.21 0 0 1 -1,0.89 4.16,4.16 0 0 1 -1.69,0.3 z m -0.86,-8.28 a 4.32,4.32 0 0 0 0.08,2.05 5.05,5.05 0 0 0 2.84,3.7 3.21,3.21 0 0 0 -0.12,-0.7 c -0.78,-2.86 -2.28,-4.83 -2.8,-5.05 z m 5.57,-0.87 a 14.19,14.19 0 0 0 0.17,2.06 5.18,5.18 0 0 0 1.52,3.22 15.72,15.72 0 0 0 -1.69,-5.28 z m 6.29,-0.87 v 0 c 0,0 -0.38,0.19 -0.52,1.86 -0.14,1.67 0.15,2.82 0.93,3.49 a 3.06,3.06 0 0 0 0.6,0.38 2.24,2.24 0 0 0 0.54,-1 6.26,6.26 0 0 0 -1.19,-4.43 c -0.21,-0.26 -0.33,-0.3 -0.36,-0.3 z"
         style="fill:#263238"
         id="path190" />
      <polygon
         points="228.87,414.58 225.97,414.58 227.61,419.28 225.97,423.98 228.87,423.98 231.58,419.28 "
         style="fill:#263238"
         id="polygon192" />
      <path
         d="m 226.16,421.73 a 2.45,2.45 0 1 1 0,-4.89 l -4.6,-0.92 -1.23,3.72 2.06,3.14 z"
         style="fill:#263238"
         id="path194" />
      <path
         d="m 226.56,414.58 h -5.43 l -2.71,4.7 2.71,4.7 h 5.43 l 2.71,-4.7 z m -2.71,7.15 a 2.45,2.45 0 1 1 2.44,-2.45 2.45,2.45 0 0 1 -2.44,2.45 z"
         style="fill:#6460c7"
         id="path196" />
      <polygon
         points="417.89,407.28 420.04,407.28 418.83,410.77 420.04,414.26 417.89,414.26 415.88,410.77 "
         style="fill:#6460c7"
         id="polygon198" />
      <path
         d="m 419.9,412.59 a 1.82,1.82 0 1 0 0,-3.63 l 3.42,-0.68 0.91,2.76 -1.52,2.33 z"
         style="fill:#6460c7"
         id="path200" />
      <path
         d="m 419.61,407.28 h 4 l 2,3.49 -2,3.49 h -4 l -2,-3.49 z m 2,5.31 a 1.82,1.82 0 1 0 -1.81,-1.82 1.81,1.81 0 0 0 1.82,1.82 z"
         style="fill:#263238"
         id="path202" />
      <path
         d="m 343,418.9 h 4.52 a 2.14,2.14 0 0 0 2.13,-2.14 v 0 a 2.14,2.14 0 0 0 -2.13,-2.14 H 343 a 2.14,2.14 0 0 0 -2.14,2.14 v 0 a 2.14,2.14 0 0 0 2.14,2.14 z"
         style="fill:#263238"
         id="path204" />
      <path
         d="m 335.73,414.86 a 4.46,4.46 0 1 1 2,6.18 4.61,4.61 0 0 1 -2,-6.18 z"
         style="fill:#6460c7"
         id="path206" />
      <rect
         x="339.07001"
         y="411.70999"
         width="1.37"
         height="10.1"
         transform="rotate(-154.76,339.73911,416.76514)"
         style="fill:#263238"
         id="rect208" />
    </g>
  </g>
</svg>
